<svg id="visual" viewBox="0 0 900 600" width="900" height="600" xmlns="http://www.w3.org/2000/svg" xmlns:xlink="http://www.w3.org/1999/xlink" version="1.1"><rect x="0" y="0" width="900" height="600" fill="#22c1c3"></rect><defs><linearGradient id="grad1_0" x1="33.3%" y1="100%" x2="100%" y2="0%"><stop offset="20%" stop-color="#007bff" stop-opacity="1"></stop><stop offset="80%" stop-color="#007bff" stop-opacity="1"></stop></linearGradient></defs><defs><linearGradient id="grad1_1" x1="33.3%" y1="100%" x2="100%" y2="0%"><stop offset="20%" stop-color="#007bff" stop-opacity="1"></stop><stop offset="80%" stop-color="#009cfc" stop-opacity="1"></stop></linearGradient></defs><defs><linearGradient id="grad1_2" x1="33.3%" y1="100%" x2="100%" y2="0%"><stop offset="20%" stop-color="#00b2e1" stop-opacity="1"></stop><stop offset="80%" stop-color="#009cfc" stop-opacity="1"></stop></linearGradient></defs><defs><linearGradient id="grad1_3" x1="33.3%" y1="100%" x2="100%" y2="0%"><stop offset="20%" stop-color="#00b2e1" stop-opacity="1"></stop><stop offset="80%" stop-color="#22c1c3" stop-opacity="1"></stop></linearGradient></defs><defs><linearGradient id="grad2_0" x1="0%" y1="100%" x2="66.7%" y2="0%"><stop offset="20%" stop-color="#007bff" stop-opacity="1"></stop><stop offset="80%" stop-color="#007bff" stop-opacity="1"></stop></linearGradient></defs><defs><linearGradient id="grad2_1" x1="0%" y1="100%" x2="66.7%" y2="0%"><stop offset="20%" stop-color="#009cfc" stop-opacity="1"></stop><stop offset="80%" stop-color="#007bff" stop-opacity="1"></stop></linearGradient></defs><defs><linearGradient id="grad2_2" x1="0%" y1="100%" x2="66.7%" y2="0%"><stop offset="20%" stop-color="#009cfc" stop-opacity="1"></stop><stop offset="80%" stop-color="#00b2e1" stop-opacity="1"></stop></linearGradient></defs><defs><linearGradient id="grad2_3" x1="0%" y1="100%" x2="66.7%" y2="0%"><stop offset="20%" stop-color="#22c1c3" stop-opacity="1"></stop><stop offset="80%" stop-color="#00b2e1" stop-opacity="1"></stop></linearGradient></defs><g transform="translate(900, 600)"><path d="M-486.7 0C-480.3 -64.4 -473.9 -128.9 -449.7 -186.3C-425.5 -243.6 -383.4 -294 -336.6 -336.6C-289.8 -379.2 -238.3 -414.2 -181.4 -437.9C-124.5 -461.7 -62.3 -474.2 0 -486.7L0 0Z" fill="#00bad1"></path><path d="M-365.1 0C-360.3 -48.3 -355.5 -96.7 -337.3 -139.7C-319.1 -182.7 -287.5 -220.5 -252.4 -252.4C-217.3 -284.4 -178.7 -310.6 -136 -328.4C-93.4 -346.3 -46.7 -355.7 0 -365.1L0 0Z" fill="#00a8f0"></path><path d="M-243.4 0C-240.2 -32.2 -237 -64.4 -224.8 -93.1C-212.7 -121.8 -191.7 -147 -168.3 -168.3C-144.9 -189.6 -119.1 -207.1 -90.7 -219C-62.3 -230.8 -31.1 -237.1 0 -243.4L0 0Z" fill="#008dff"></path><path d="M-121.7 0C-120.1 -16.1 -118.5 -32.2 -112.4 -46.6C-106.4 -60.9 -95.8 -73.5 -84.1 -84.1C-72.4 -94.8 -59.6 -103.5 -45.3 -109.5C-31.1 -115.4 -15.6 -118.6 0 -121.7L0 0Z" fill="#007bff"></path></g><g transform="translate(0, 0)"><path d="M486.7 0C481.3 65.4 475.9 130.7 449.7 186.3C423.5 241.8 376.6 287.6 329.5 329.5C282.4 371.4 235.2 409.6 180.2 435.1C125.3 460.7 62.6 473.7 0 486.7L0 0Z" fill="#00bad1"></path><path d="M365.1 0C361 49 356.9 98 337.3 139.7C317.6 181.4 282.4 215.7 247.1 247.1C211.8 278.6 176.4 307.2 135.2 326.4C94 345.5 47 355.3 0 365.1L0 0Z" fill="#00a8f0"></path><path d="M243.4 0C240.7 32.7 237.9 65.4 224.8 93.1C211.8 120.9 188.3 143.8 164.8 164.8C141.2 185.7 117.6 204.8 90.1 217.6C62.6 230.4 31.3 236.9 0 243.4L0 0Z" fill="#008dff"></path><path d="M121.7 0C120.3 16.3 119 32.7 112.4 46.6C105.9 60.5 94.1 71.9 82.4 82.4C70.6 92.9 58.8 102.4 45.1 108.8C31.3 115.2 15.7 118.4 0 121.7L0 0Z" fill="#007bff"></path></g></svg>