<svg id="visual" viewBox="0 0 900 600" width="900" height="600" xmlns="http://www.w3.org/2000/svg" xmlns:xlink="http://www.w3.org/1999/xlink" version="1.1"><rect x="0" y="0" width="900" height="600" fill="#001220"></rect><path d="M0 375L21.5 383.7C43 392.3 86 409.7 128.8 410.3C171.7 411 214.3 395 257.2 395.3C300 395.7 343 412.3 385.8 423.5C428.7 434.7 471.3 440.3 514.2 428.5C557 416.7 600 387.3 642.8 378.7C685.7 370 728.3 382 771.2 393C814 404 857 414 878.5 419L900 424L900 601L878.5 601C857 601 814 601 771.2 601C728.3 601 685.7 601 642.8 601C600 601 557 601 514.2 601C471.3 601 428.7 601 385.8 601C343 601 300 601 257.2 601C214.3 601 171.7 601 128.8 601C86 601 43 601 21.5 601L0 601Z" fill="#2922ff"></path><path d="M0 416L21.5 424C43 432 86 448 128.8 453.3C171.7 458.7 214.3 453.3 257.2 444.3C300 435.3 343 422.7 385.8 427C428.7 431.3 471.3 452.7 514.2 457C557 461.3 600 448.7 642.8 440.3C685.7 432 728.3 428 771.2 426.3C814 424.7 857 425.3 878.5 425.7L900 426L900 601L878.5 601C857 601 814 601 771.2 601C728.3 601 685.7 601 642.8 601C600 601 557 601 514.2 601C471.3 601 428.7 601 385.8 601C343 601 300 601 257.2 601C214.3 601 171.7 601 128.8 601C86 601 43 601 21.5 601L0 601Z" fill="#0943ff"></path><path d="M0 448L21.5 453C43 458 86 468 128.8 471.7C171.7 475.3 214.3 472.7 257.2 475.8C300 479 343 488 385.8 488.7C428.7 489.3 471.3 481.7 514.2 482C557 482.3 600 490.7 642.8 485.8C685.7 481 728.3 463 771.2 465C814 467 857 489 878.5 500L900 511L900 601L878.5 601C857 601 814 601 771.2 601C728.3 601 685.7 601 642.8 601C600 601 557 601 514.2 601C471.3 601 428.7 601 385.8 601C343 601 300 601 257.2 601C214.3 601 171.7 601 128.8 601C86 601 43 601 21.5 601L0 601Z" fill="#0059ff"></path><path d="M0 525L21.5 527.8C43 530.7 86 536.3 128.8 538.7C171.7 541 214.3 540 257.2 536.5C300 533 343 527 385.8 525.3C428.7 523.7 471.3 526.3 514.2 523.3C557 520.3 600 511.7 642.8 513.2C685.7 514.7 728.3 526.3 771.2 524.3C814 522.3 857 506.7 878.5 498.8L900 491L900 601L878.5 601C857 601 814 601 771.2 601C728.3 601 685.7 601 642.8 601C600 601 557 601 514.2 601C471.3 601 428.7 601 385.8 601C343 601 300 601 257.2 601C214.3 601 171.7 601 128.8 601C86 601 43 601 21.5 601L0 601Z" fill="#006bff"></path><path d="M0 547L21.5 544.8C43 542.7 86 538.3 128.8 541.7C171.7 545 214.3 556 257.2 562.2C300 568.3 343 569.7 385.8 570.5C428.7 571.3 471.3 571.7 514.2 571.2C557 570.7 600 569.3 642.8 566.5C685.7 563.7 728.3 559.3 771.2 558.8C814 558.3 857 561.7 878.5 563.3L900 565L900 601L878.5 601C857 601 814 601 771.2 601C728.3 601 685.7 601 642.8 601C600 601 557 601 514.2 601C471.3 601 428.7 601 385.8 601C343 601 300 601 257.2 601C214.3 601 171.7 601 128.8 601C86 601 43 601 21.5 601L0 601Z" fill="#007bff"></path></svg>