<svg id="visual" viewBox="0 0 900 600" width="900" height="600" xmlns="http://www.w3.org/2000/svg" xmlns:xlink="http://www.w3.org/1999/xlink" version="1.1"><g stroke-width="1" stroke-linejoin="bevel"><path d="M522 296L633 362L596 262Z" fill="#e9e9d2" stroke="#e9e9d2"></path><path d="M522 296L499 378L633 362Z" fill="#969692" stroke="#969692"></path><path d="M633 362L713 337L596 262Z" fill="#c5c5b6" stroke="#c5c5b6"></path><path d="M664 187L622 182L596 262Z" fill="#f5f5dc" stroke="#f5f5dc"></path><path d="M596 262L475 201L522 296Z" fill="#adada4" stroke="#adada4"></path><path d="M499 378L618 472L633 362Z" fill="#adada4" stroke="#adada4"></path><path d="M633 362L686 434L713 337Z" fill="#e9e9d2" stroke="#e9e9d2"></path><path d="M618 472L686 434L633 362Z" fill="#ddddc9" stroke="#ddddc9"></path><path d="M713 337L664 187L596 262Z" fill="#c5c5b6" stroke="#c5c5b6"></path><path d="M622 182L475 201L596 262Z" fill="#d1d1c0" stroke="#d1d1c0"></path><path d="M522 296L373 293L499 378Z" fill="#b9b9ad" stroke="#b9b9ad"></path><path d="M618 472L669 469L686 434Z" fill="#f5f5dc" stroke="#f5f5dc"></path><path d="M361 390L464 495L499 378Z" fill="#b9b9ad" stroke="#b9b9ad"></path><path d="M499 378L464 495L618 472Z" fill="#8b8b89" stroke="#8b8b89"></path><path d="M669 600L767 527L669 469Z" fill="#f5f5dc" stroke="#f5f5dc"></path><path d="M475 201L373 293L522 296Z" fill="#a2a29b" stroke="#a2a29b"></path><path d="M373 293L361 390L499 378Z" fill="#ddddc9" stroke="#ddddc9"></path><path d="M622 182L490 109L475 201Z" fill="#adada4" stroke="#adada4"></path><path d="M475 201L398 164L373 293Z" fill="#e9e9d2" stroke="#e9e9d2"></path><path d="M638 79L490 109L622 182Z" fill="#808080" stroke="#808080"></path><path d="M713 337L771 188L664 187Z" fill="#d1d1c0" stroke="#d1d1c0"></path><path d="M664 187L638 79L622 182Z" fill="#d1d1c0" stroke="#d1d1c0"></path><path d="M837 278L771 188L713 337Z" fill="#c5c5b6" stroke="#c5c5b6"></path><path d="M415 133L398 164L475 201Z" fill="#c5c5b6" stroke="#c5c5b6"></path><path d="M767 527L806 428L686 434Z" fill="#c5c5b6" stroke="#c5c5b6"></path><path d="M686 434L806 428L713 337Z" fill="#ddddc9" stroke="#ddddc9"></path><path d="M711 74L638 79L664 187Z" fill="#c5c5b6" stroke="#c5c5b6"></path><path d="M490 109L415 133L475 201Z" fill="#d1d1c0" stroke="#d1d1c0"></path><path d="M806 428L837 278L713 337Z" fill="#ddddc9" stroke="#ddddc9"></path><path d="M361 390L408 525L464 495Z" fill="#b9b9ad" stroke="#b9b9ad"></path><path d="M669 600L669 469L618 472Z" fill="#a2a29b" stroke="#a2a29b"></path><path d="M373 293L312 385L361 390Z" fill="#8b8b89" stroke="#8b8b89"></path><path d="M361 390L297 536L408 525Z" fill="#d1d1c0" stroke="#d1d1c0"></path><path d="M286 328L312 385L373 293Z" fill="#adada4" stroke="#adada4"></path><path d="M669 469L767 527L686 434Z" fill="#a2a29b" stroke="#a2a29b"></path><path d="M621 600L618 472L464 495Z" fill="#c5c5b6" stroke="#c5c5b6"></path><path d="M464 600L621 600L464 495Z" fill="#a2a29b" stroke="#a2a29b"></path><path d="M839 128L711 74L771 188Z" fill="#808080" stroke="#808080"></path><path d="M771 188L711 74L664 187Z" fill="#969692" stroke="#969692"></path><path d="M621 600L669 600L618 472Z" fill="#808080" stroke="#808080"></path><path d="M275 233L286 328L373 293Z" fill="#adada4" stroke="#adada4"></path><path d="M275 233L373 293L398 164Z" fill="#e9e9d2" stroke="#e9e9d2"></path><path d="M408 525L464 600L464 495Z" fill="#969692" stroke="#969692"></path><path d="M235 221L275 233L233 113Z" fill="#ddddc9" stroke="#ddddc9"></path><path d="M806 428L900 324L837 278Z" fill="#969692" stroke="#969692"></path><path d="M900 214L839 128L771 188Z" fill="#d1d1c0" stroke="#d1d1c0"></path><path d="M900 438L900 324L806 428Z" fill="#c5c5b6" stroke="#c5c5b6"></path><path d="M900 214L771 188L837 278Z" fill="#f5f5dc" stroke="#f5f5dc"></path><path d="M711 74L623 0L638 79Z" fill="#a2a29b" stroke="#a2a29b"></path><path d="M638 79L493 0L490 109Z" fill="#b9b9ad" stroke="#b9b9ad"></path><path d="M490 109L397 0L415 133Z" fill="#e9e9d2" stroke="#e9e9d2"></path><path d="M728 0L623 0L711 74Z" fill="#d1d1c0" stroke="#d1d1c0"></path><path d="M333 600L391 600L408 525Z" fill="#ddddc9" stroke="#ddddc9"></path><path d="M408 525L391 600L464 600Z" fill="#969692" stroke="#969692"></path><path d="M297 536L361 390L312 385Z" fill="#a2a29b" stroke="#a2a29b"></path><path d="M623 0L493 0L638 79Z" fill="#a2a29b" stroke="#a2a29b"></path><path d="M233 113L275 233L398 164Z" fill="#e9e9d2" stroke="#e9e9d2"></path><path d="M900 324L900 214L837 278Z" fill="#ddddc9" stroke="#ddddc9"></path><path d="M900 535L806 428L767 527Z" fill="#adada4" stroke="#adada4"></path><path d="M900 535L900 438L806 428Z" fill="#969692" stroke="#969692"></path><path d="M221 378L312 385L286 328Z" fill="#a2a29b" stroke="#a2a29b"></path><path d="M186 487L297 536L312 385Z" fill="#e9e9d2" stroke="#e9e9d2"></path><path d="M669 600L803 600L767 527Z" fill="#adada4" stroke="#adada4"></path><path d="M781 0L728 0L711 74Z" fill="#808080" stroke="#808080"></path><path d="M303 61L398 164L415 133Z" fill="#d1d1c0" stroke="#d1d1c0"></path><path d="M275 233L235 221L286 328Z" fill="#f5f5dc" stroke="#f5f5dc"></path><path d="M160 291L221 378L286 328Z" fill="#a2a29b" stroke="#a2a29b"></path><path d="M297 536L333 600L408 525Z" fill="#8b8b89" stroke="#8b8b89"></path><path d="M493 0L397 0L490 109Z" fill="#c5c5b6" stroke="#c5c5b6"></path><path d="M900 214L900 123L839 128Z" fill="#c5c5b6" stroke="#c5c5b6"></path><path d="M839 128L781 0L711 74Z" fill="#c5c5b6" stroke="#c5c5b6"></path><path d="M900 0L781 0L839 128Z" fill="#a2a29b" stroke="#a2a29b"></path><path d="M397 0L303 61L415 133Z" fill="#e9e9d2" stroke="#e9e9d2"></path><path d="M803 600L900 535L767 527Z" fill="#808080" stroke="#808080"></path><path d="M303 61L233 113L398 164Z" fill="#d1d1c0" stroke="#d1d1c0"></path><path d="M235 221L160 291L286 328Z" fill="#c5c5b6" stroke="#c5c5b6"></path><path d="M138 291L160 291L88 182Z" fill="#808080" stroke="#808080"></path><path d="M221 378L186 487L312 385Z" fill="#969692" stroke="#969692"></path><path d="M803 600L900 600L900 535Z" fill="#808080" stroke="#808080"></path><path d="M88 439L186 487L221 378Z" fill="#c5c5b6" stroke="#c5c5b6"></path><path d="M297 536L223 600L333 600Z" fill="#8b8b89" stroke="#8b8b89"></path><path d="M88 182L160 291L235 221Z" fill="#e9e9d2" stroke="#e9e9d2"></path><path d="M160 291L138 291L221 378Z" fill="#adada4" stroke="#adada4"></path><path d="M397 0L268 0L303 61Z" fill="#e9e9d2" stroke="#e9e9d2"></path><path d="M303 61L268 0L233 113Z" fill="#d1d1c0" stroke="#d1d1c0"></path><path d="M233 113L88 182L235 221Z" fill="#8b8b89" stroke="#8b8b89"></path><path d="M186 487L223 600L297 536Z" fill="#ddddc9" stroke="#ddddc9"></path><path d="M900 123L900 0L839 128Z" fill="#c5c5b6" stroke="#c5c5b6"></path><path d="M268 0L196 0L233 113Z" fill="#c5c5b6" stroke="#c5c5b6"></path><path d="M138 291L88 439L221 378Z" fill="#969692" stroke="#969692"></path><path d="M186 487L73 529L223 600Z" fill="#8b8b89" stroke="#8b8b89"></path><path d="M0 324L88 439L138 291Z" fill="#969692" stroke="#969692"></path><path d="M105 109L88 182L233 113Z" fill="#e9e9d2" stroke="#e9e9d2"></path><path d="M196 0L105 109L233 113Z" fill="#c5c5b6" stroke="#c5c5b6"></path><path d="M0 511L73 529L88 439Z" fill="#e9e9d2" stroke="#e9e9d2"></path><path d="M88 439L73 529L186 487Z" fill="#adada4" stroke="#adada4"></path><path d="M0 171L0 324L88 182Z" fill="#8b8b89" stroke="#8b8b89"></path><path d="M196 0L122 0L105 109Z" fill="#808080" stroke="#808080"></path><path d="M0 171L88 182L0 108Z" fill="#a2a29b" stroke="#a2a29b"></path><path d="M88 182L0 324L138 291Z" fill="#ddddc9" stroke="#ddddc9"></path><path d="M0 324L0 411L88 439Z" fill="#8b8b89" stroke="#8b8b89"></path><path d="M0 600L61 600L73 529Z" fill="#adada4" stroke="#adada4"></path><path d="M73 529L61 600L223 600Z" fill="#e9e9d2" stroke="#e9e9d2"></path><path d="M0 108L88 182L105 109Z" fill="#adada4" stroke="#adada4"></path><path d="M0 411L0 511L88 439Z" fill="#f5f5dc" stroke="#f5f5dc"></path><path d="M0 0L0 108L105 109Z" fill="#d1d1c0" stroke="#d1d1c0"></path><path d="M0 511L0 600L73 529Z" fill="#b9b9ad" stroke="#b9b9ad"></path><path d="M122 0L0 0L105 109Z" fill="#969692" stroke="#969692"></path></g></svg>